# xmcd
#
# Track frame offsets: 
#        150
#        21908
#        45681
#        70536
#        90098
#        108965
#        127569
#        161271
#        192828
#        212409
#        241429
#
# Disc length: 3538 seconds
#
# Revision: 1
# Processed by: cddbd v1.5.2PL0 Copyright (c) Steve Scherf et al.
# Submitted via: ExactAudioCopy v1.0b6
#
DISCID=780dd00b
DTITLE=Various Artist - Modern Jazz Movement Six
DYEAR=2002
DGENRE=Modern Jazz
TTITLE0=Tosca - Annanas (G-Corporation Dub)
TTITLE1=Nor Elle - On the Roof
TTITLE2=Plastyc Buddha - Rhodes Royce
TTITLE3=Yonderboi - Riders On The Storm - Pinkism
TTITLE4=Sanford Lobue - Sidenod
TTITLE5=Modern Quartet - Goodbye Jupiter
TTITLE6=Lemongrass - The Bell
TTITLE7=John Beltran - Caboclo
TTITLE8=Monsieur Charles - The Flute Plays On
TTITLE9=G-Pal - After Life
TTITLE10=Dzihan and Kamien - Ocean Air
EXTD=YEAR: 2002
EXTT0=
EXTT1=
EXTT2=
EXTT3=
EXTT4=
EXTT5=
EXTT6=
EXTT7=
EXTT8=
EXTT9=
EXTT10=
PLAYORDER=
